<?xml version="1.0" encoding="utf-8"?>
<!-- Generator: Adobe Illustrator 15.0.2, SVG Export Plug-In . SVG Version: 6.00 Build 0)  -->
<!DOCTYPE svg PUBLIC "-//W3C//DTD SVG 1.1//EN" "http://www.w3.org/Graphics/SVG/1.1/DTD/svg11.dtd">
<svg version="1.1" id="Layer_1" xmlns="http://www.w3.org/2000/svg" xmlns:xlink="http://www.w3.org/1999/xlink" x="0px" y="0px"
	 width="600px" height="600px" viewBox="0 0 600 600" enable-background="new 0 0 600 600" xml:space="preserve">
<rect fill="#FFFFFF" width="600" height="600"/>
<rect x="59.155" y="59.155" width="481.69" height="481.69"/>
<polygon fill="#FF00FF" points="137.516,101.408 209.731,101.408 209.731,169.014 137.516,169.014 "/>
<polygon fill="#FF00FF" points="209.731,101.408 281.946,101.408 281.946,169.014 209.731,169.014 "/>
<polygon fill="#FF00FF" points="281.946,101.408 354.161,101.408 354.161,169.014 281.946,169.014 "/>
<polygon fill="#FFFF00" points="354.161,101.408 426.376,101.408 426.376,169.014 354.161,169.014 "/>
<polygon points="426.376,101.408 462.484,101.408 498.592,160.563 498.592,169.014 426.376,169.014 "/>
<polygon fill="#FF00FF" points="137.516,177.465 209.731,177.465 209.731,245.07 137.516,245.07 "/>
<polygon points="209.731,177.465 281.946,177.465 281.946,245.07 209.731,245.07 "/>
<polygon fill="#FF00FF" points="281.946,177.465 354.161,177.465 354.161,245.07 281.946,245.07 "/>
<polygon fill="#00FFFF" points="354.161,177.465 426.376,177.465 426.376,245.07 354.161,245.07 "/>
<polygon fill="#FFFF00" points="426.376,177.465 462.484,177.465 498.592,236.62 498.592,245.07 426.376,245.07 "/>
<polygon fill="#FF00FF" points="137.516,253.521 209.731,253.521 209.731,321.127 137.516,321.127 "/>
<polygon fill="#FFFF00" points="209.731,253.521 281.946,253.521 281.946,321.127 209.731,321.127 "/>
<polygon points="281.946,253.521 354.161,253.521 354.161,321.127 281.946,321.127 "/>
<polygon fill="#FF00FF" points="354.161,253.521 426.376,253.521 426.376,321.127 354.161,321.127 "/>
<polygon fill="#00FFFF" points="426.376,253.521 462.484,253.521 498.592,312.676 498.592,321.127 426.376,321.127 "/>
<polygon fill="#FF00FF" points="137.516,329.577 209.731,329.577 209.731,397.183 137.516,397.183 "/>
<polygon points="209.731,329.577 281.946,329.577 281.946,397.183 209.731,397.183 "/>
<polygon points="281.946,329.577 354.161,329.577 354.161,397.183 281.946,397.183 "/>
<polygon fill="#FF00FF" points="354.161,329.577 426.376,329.577 426.376,397.183 354.161,397.183 "/>
<polygon fill="#00FFFF" points="426.376,329.577 462.484,329.577 498.592,388.732 498.592,397.183 426.376,397.183 "/>
<polygon fill="#FFFF00" points="137.516,405.634 209.731,405.634 209.731,473.239 137.516,473.239 "/>
<polygon fill="#00FFFF" points="209.731,405.634 281.946,405.634 281.946,473.239 209.731,473.239 "/>
<polygon fill="#FF00FF" points="281.946,405.634 354.161,405.634 354.161,473.239 281.946,473.239 "/>
<polygon fill="#FF00FF" points="354.161,405.634 426.376,405.634 426.376,473.239 354.161,473.239 "/>
<polygon fill="#00FFFF" points="426.376,405.634 462.484,405.634 498.592,464.789 498.592,473.239 426.376,473.239 "/>
<polygon fill="#FFFF00" points="101.408,101.408 101.408,92.958 173.624,92.958 173.624,101.408 137.516,160.563 "/>
<polygon fill="#FF00FF" points="173.624,101.408 173.624,92.958 245.839,92.958 245.839,101.408 209.731,160.563 "/>
<polygon fill="#00FFFF" points="245.839,101.408 245.839,92.958 318.055,92.958 318.055,101.408 281.946,160.563 "/>
<polygon fill="#FFFF00" points="318.055,101.408 318.055,92.958 390.27,92.958 390.27,101.408 354.161,160.563 "/>
<polygon fill="#FFFF00" points="390.27,101.408 390.27,92.958 462.484,92.958 462.484,101.408 426.376,160.563 "/>
<polygon points="101.408,177.465 101.408,169.014 173.624,169.014 173.624,177.465 137.516,236.62 "/>
<polygon points="173.624,177.465 173.624,169.014 245.839,169.014 245.839,177.465 209.731,236.62 "/>
<polygon points="245.839,177.465 245.839,169.014 318.055,169.014 318.055,177.465 281.946,236.62 "/>
<polygon fill="#00FFFF" points="318.055,177.465 318.055,169.014 390.27,169.014 390.27,177.465 354.161,236.62 "/>
<polygon points="390.27,177.465 390.27,169.014 462.484,169.014 462.484,177.465 426.376,236.62 "/>
<polygon fill="#00FFFF" points="101.408,253.521 101.408,245.07 173.624,245.07 173.624,253.521 137.516,312.676 "/>
<polygon fill="#00FFFF" points="173.624,253.521 173.624,245.07 245.839,245.07 245.839,253.521 209.731,312.676 "/>
<polygon fill="#FF00FF" points="245.839,253.521 245.839,245.07 318.055,245.07 318.055,253.521 281.946,312.676 "/>
<polygon fill="#FFFF00" points="318.055,253.521 318.055,245.07 390.27,245.07 390.27,253.521 354.161,312.676 "/>
<polygon fill="#FFFF00" points="390.27,253.521 390.27,245.07 462.484,245.07 462.484,253.521 426.376,312.676 "/>
<polygon points="101.408,329.577 101.408,321.127 173.624,321.127 173.624,329.577 137.516,388.732 "/>
<polygon points="173.624,329.577 173.624,321.127 245.839,321.127 245.839,329.577 209.731,388.732 "/>
<polygon fill="#FF00FF" points="245.839,329.577 245.839,321.127 318.055,321.127 318.055,329.577 281.946,388.732 "/>
<polygon fill="#FFFF00" points="318.055,329.577 318.055,321.127 390.27,321.127 390.27,329.577 354.161,388.732 "/>
<polygon fill="#00FFFF" points="390.27,329.577 390.27,321.127 462.484,321.127 462.484,329.577 426.376,388.732 "/>
<polygon fill="#00FFFF" points="101.408,405.634 101.408,397.183 173.624,397.183 173.624,405.634 137.516,464.789 "/>
<polygon fill="#FF00FF" points="173.624,405.634 173.624,397.183 245.839,397.183 245.839,405.634 209.731,464.789 "/>
<polygon fill="#FFFF00" points="245.839,405.634 245.839,397.183 318.055,397.183 318.055,405.634 281.946,464.789 "/>
<polygon fill="#FFFF00" points="318.055,405.634 318.055,397.183 390.27,397.183 390.27,405.634 354.161,464.789 "/>
<polygon points="390.27,405.634 390.27,397.183 462.484,397.183 462.484,405.634 426.376,464.789 "/>
<rect x="84.507" y="84.507" fill="#FFFFFF" width="430.986" height="16.901"/>
<rect x="84.507" y="160.563" fill="#FFFFFF" width="430.986" height="16.901"/>
<rect x="84.507" y="236.62" fill="#FFFFFF" width="430.986" height="16.901"/>
<rect x="84.507" y="312.676" fill="#FFFFFF" width="430.986" height="16.901"/>
<rect x="84.507" y="388.732" fill="#FFFFFF" width="430.986" height="16.901"/>
<rect x="84.507" y="464.789" fill="#FFFFFF" width="430.986" height="16.901"/>
</svg>
